<svg class="icon" viewBox="0 0 1024 1024" xmlns="http://www.w3.org/2000/svg" width="200" height="200"><path d="M972.493 217.498a73.42 73.42 0 0 0-58.573-64.052 1415.731 1415.731 0 0 1-189.184-42.956A706.15 706.15 0 0 1 555.52 14.438a77.67 77.67 0 0 0-90.112 0 445.85 445.85 0 0 1-170.496 96.052 639.027 639.027 0 0 1-183.86 44.85 67.891 67.891 0 0 0-57.855 64.052S51.2 379.238 51.2 520.448C51.2 776.499 358.195 1024 511.846 1024c153.6 0 413.594-174.592 455.015-499.712a2867.277 2867.277 0 0 0 3.328-306.176h2.611l-.307-.614zM805.325 415.437 484.813 712.653a43.674 43.674 0 0 1-53.248 5.12l-8.55-7.015-176.743-181.35a42.752 42.752 0 0 1 2.304-61.184 43.776 43.776 0 0 1 62.157 2.56l145.766 150.22 288.87-269.67a44.442 44.442 0 0 1 62.516 2.56c16.537 17.767 15.36 45.108-2.611 61.44z"/></svg>