<svg width="23" height="23" viewBox="0 0 23 23" fill="none" xmlns="http://www.w3.org/2000/svg">
<path fill-rule="evenodd" clip-rule="evenodd" d="M11.4101 4.30609C12.3346 4.30609 13.084 3.55665 13.084 2.63217C13.084 1.70769 12.3346 0.958252 11.4101 0.958252C10.4857 0.958252 9.73621 1.70769 9.73621 2.63217C9.73621 3.55665 10.4857 4.30609 11.4101 4.30609ZM11.4101 12.7622C12.1386 12.7622 12.7291 12.1717 12.7291 11.4432C12.7291 10.7148 12.1386 10.1243 11.4101 10.1243C10.6817 10.1243 10.0912 10.7148 10.0912 11.4432C10.0912 12.1717 10.6817 12.7622 11.4101 12.7622ZM4.182 11.4432C4.182 12.0877 3.65952 12.6102 3.01502 12.6102C2.37051 12.6102 1.84804 12.0877 1.84804 11.4432C1.84804 10.7987 2.37051 10.2762 3.01502 10.2762C3.65952 10.2762 4.182 10.7987 4.182 11.4432ZM7.06004 14.7456C7.70455 14.7456 8.22703 14.2231 8.22703 13.5786C8.22703 12.9341 7.70455 12.4116 7.06004 12.4116C6.41554 12.4116 5.89306 12.9341 5.89306 13.5786C5.89306 14.2231 6.41554 14.7456 7.06004 14.7456ZM12.7291 15.7425C12.7291 16.387 12.2066 16.9095 11.5621 16.9095C10.9176 16.9095 10.3951 16.387 10.3951 15.7425C10.3951 15.098 10.9176 14.5755 11.5621 14.5755C12.2066 14.5755 12.7291 15.098 12.7291 15.7425ZM15.7605 14.7456C16.4051 14.7456 16.9275 14.2231 16.9275 13.5786C16.9275 12.9341 16.4051 12.4116 15.7605 12.4116C15.116 12.4116 14.5936 12.9341 14.5936 13.5786C14.5936 14.2231 15.116 14.7456 15.7605 14.7456ZM21.2774 11.4432C21.2774 12.0877 20.755 12.6102 20.1104 12.6102C19.4659 12.6102 18.9435 12.0877 18.9435 11.4432C18.9435 10.7987 19.4659 10.2762 20.1104 10.2762C20.755 10.2762 21.2774 10.7987 21.2774 11.4432ZM3.015 15.785C3.60558 15.785 4.08434 15.3062 4.08434 14.7156C4.08434 14.125 3.60558 13.6463 3.015 13.6463C2.42441 13.6463 1.94565 14.125 1.94565 14.7156C1.94565 15.3062 2.42441 15.785 3.015 15.785ZM8.12937 16.851C8.12937 17.4416 7.65061 17.9203 7.06002 17.9203C6.46944 17.9203 5.99067 17.4416 5.99067 16.851C5.99067 16.2604 6.46944 15.7816 7.06002 15.7816C7.65061 15.7816 8.12937 16.2604 8.12937 16.851ZM11.5621 20.0842C12.1526 20.0842 12.6314 19.6055 12.6314 19.0149C12.6314 18.4243 12.1526 17.9455 11.5621 17.9455C10.9715 17.9455 10.4927 18.4243 10.4927 19.0149C10.4927 19.6055 10.9715 20.0842 11.5621 20.0842ZM16.8299 16.851C16.8299 17.4416 16.3511 17.9203 15.7605 17.9203C15.1699 17.9203 14.6912 17.4416 14.6912 16.851C14.6912 16.2604 15.1699 15.7816 15.7605 15.7816C16.3511 15.7816 16.8299 16.2604 16.8299 16.851ZM20.1105 15.785C20.701 15.785 21.1798 15.3062 21.1798 14.7156C21.1798 14.125 20.701 13.6463 20.1105 13.6463C19.5199 13.6463 19.0411 14.125 19.0411 14.7156C19.0411 15.3062 19.5199 15.785 20.1105 15.785ZM3.77932 17.7384C3.77932 18.1605 3.43713 18.5027 3.01502 18.5027C2.59291 18.5027 2.25073 18.1605 2.25073 17.7384C2.25073 17.3163 2.59291 16.9741 3.01502 16.9741C3.43713 16.9741 3.77932 17.3163 3.77932 17.7384ZM7.06005 20.6381C7.48216 20.6381 7.82434 20.2959 7.82434 19.8738C7.82434 19.4517 7.48216 19.1095 7.06005 19.1095C6.63794 19.1095 6.29575 19.4517 6.29575 19.8738C6.29575 20.2959 6.63794 20.6381 7.06005 20.6381ZM12.3264 22.0377C12.3264 22.4598 11.9842 22.802 11.5621 22.802C11.14 22.802 10.7978 22.4598 10.7978 22.0377C10.7978 21.6156 11.14 21.2734 11.5621 21.2734C11.9842 21.2734 12.3264 21.6156 12.3264 22.0377ZM15.7606 20.6381C16.1827 20.6381 16.5249 20.2959 16.5249 19.8738C16.5249 19.4517 16.1827 19.1095 15.7606 19.1095C15.3385 19.1095 14.9963 19.4517 14.9963 19.8738C14.9963 20.2959 15.3385 20.6381 15.7606 20.6381ZM20.8748 17.7384C20.8748 18.1605 20.5326 18.5027 20.1105 18.5027C19.6884 18.5027 19.3462 18.1605 19.3462 17.7384C19.3462 17.3163 19.6884 16.9741 20.1105 16.9741C20.5326 16.9741 20.8748 17.3163 20.8748 17.7384ZM7.06006 6.69772C7.90306 6.69772 8.58644 6.01434 8.58644 5.17134C8.58644 4.32835 7.90306 3.64497 7.06006 3.64497C6.21707 3.64497 5.53368 4.32835 5.53368 5.17134C5.53368 6.01434 6.21707 6.69772 7.06006 6.69772ZM8.42224 9.37552C8.42224 10.1278 7.81236 10.7377 7.06004 10.7377C6.30771 10.7377 5.69783 10.1278 5.69783 9.37552C5.69783 8.6232 6.30771 8.01332 7.06004 8.01332C7.81236 8.01332 8.42224 8.6232 8.42224 9.37552ZM2.96513 8.8575C3.72114 8.8575 4.334 8.24463 4.334 7.48862C4.334 6.73262 3.72114 6.11975 2.96513 6.11975C2.20912 6.11975 1.59625 6.73262 1.59625 7.48862C1.59625 8.24463 2.20912 8.8575 2.96513 8.8575ZM12.7789 7.48862C12.7789 8.24462 12.1661 8.85749 11.4101 8.85749C10.6541 8.85749 10.0412 8.24462 10.0412 7.48862C10.0412 6.73262 10.6541 6.11976 11.4101 6.11976C12.1661 6.11976 12.7789 6.73262 12.7789 7.48862ZM20.1105 8.85748C20.8665 8.85748 21.4793 8.24461 21.4793 7.4886C21.4793 6.7326 20.8665 6.11973 20.1105 6.11973C19.3545 6.11973 18.7416 6.7326 18.7416 7.4886C18.7416 8.24461 19.3545 8.85748 20.1105 8.85748ZM17.2869 5.17134C17.2869 6.01434 16.6036 6.69772 15.7606 6.69772C14.9176 6.69772 14.2342 6.01434 14.2342 5.17134C14.2342 4.32835 14.9176 3.64497 15.7606 3.64497C16.6036 3.64497 17.2869 4.32835 17.2869 5.17134ZM15.7605 10.7377C16.5129 10.7377 17.1228 10.1279 17.1228 9.37553C17.1228 8.6232 16.5129 8.01332 15.7605 8.01332C15.0082 8.01332 14.3983 8.6232 14.3983 9.37553C14.3983 10.1279 15.0082 10.7377 15.7605 10.7377Z" fill="url(#paint0_linear_67_146280)"/>
<defs>
<linearGradient id="paint0_linear_67_146280" x1="11.5378" y1="0.958252" x2="11.5378" y2="22.802" gradientUnits="userSpaceOnUse">
<stop offset="0.270921" stop-color="#0052D9"/>
<stop offset="1" stop-color="#0052D9" stop-opacity="0.59"/>
</linearGradient>
</defs>
</svg>
