<svg width="28" height="28" viewBox="0 0 28 28" fill="none" xmlns="http://www.w3.org/2000/svg">
<path fill-rule="evenodd" clip-rule="evenodd" d="M13.8906 5.24232C15.016 5.24232 15.9284 4.32996 15.9284 3.2045C15.9284 2.07905 15.016 1.16669 13.8906 1.16669C12.7651 1.16669 11.8528 2.07905 11.8528 3.2045C11.8528 4.32996 12.7651 5.24232 13.8906 5.24232ZM13.8906 15.5367C14.7773 15.5367 15.4962 14.8178 15.4962 13.931C15.4962 13.0442 14.7773 12.3253 13.8906 12.3253C13.0038 12.3253 12.2849 13.0442 12.2849 13.931C12.2849 14.8178 13.0038 15.5367 13.8906 15.5367ZM5.0911 13.931C5.0911 14.7156 4.45505 15.3517 3.67043 15.3517C2.88581 15.3517 2.24976 14.7156 2.24976 13.931C2.24976 13.1464 2.88581 12.5103 3.67043 12.5103C4.45505 12.5103 5.0911 13.1464 5.0911 13.931ZM8.59481 17.9513C9.37942 17.9513 10.0155 17.3152 10.0155 16.5306C10.0155 15.746 9.37942 15.1099 8.59481 15.1099C7.81019 15.1099 7.17413 15.746 7.17413 16.5306C7.17413 17.3152 7.81019 17.9513 8.59481 17.9513ZM15.4962 19.1649C15.4962 19.9495 14.8602 20.5856 14.0756 20.5856C13.2909 20.5856 12.6549 19.9495 12.6549 19.1649C12.6549 18.3803 13.2909 17.7442 14.0756 17.7442C14.8602 17.7442 15.4962 18.3803 15.4962 19.1649ZM19.1867 17.9513C19.9713 17.9513 20.6074 17.3152 20.6074 16.5306C20.6074 15.746 19.9713 15.1099 19.1867 15.1099C18.4021 15.1099 17.7661 15.746 17.7661 16.5306C17.7661 17.3152 18.4021 17.9513 19.1867 17.9513ZM25.9029 13.931C25.9029 14.7156 25.2669 15.3517 24.4823 15.3517C23.6976 15.3517 23.0616 14.7156 23.0616 13.931C23.0616 13.1464 23.6976 12.5103 24.4823 12.5103C25.2669 12.5103 25.9029 13.1464 25.9029 13.931ZM3.6704 19.2166C4.38938 19.2166 4.97222 18.6338 4.97222 17.9148C4.97222 17.1958 4.38938 16.613 3.6704 16.613C2.95143 16.613 2.36859 17.1958 2.36859 17.9148C2.36859 18.6338 2.95143 19.2166 3.6704 19.2166ZM9.8966 20.5144C9.8966 21.2333 9.31375 21.8162 8.59478 21.8162C7.87581 21.8162 7.29297 21.2333 7.29297 20.5144C7.29297 19.7954 7.87581 19.2126 8.59478 19.2126C9.31375 19.2126 9.8966 19.7954 9.8966 20.5144ZM14.0755 24.4505C14.7945 24.4505 15.3773 23.8676 15.3773 23.1487C15.3773 22.4297 14.7945 21.8469 14.0755 21.8469C13.3566 21.8469 12.7737 22.4297 12.7737 23.1487C12.7737 23.8676 13.3566 24.4505 14.0755 24.4505ZM20.4885 20.5144C20.4885 21.2333 19.9057 21.8162 19.1867 21.8162C18.4677 21.8162 17.8849 21.2333 17.8849 20.5144C17.8849 19.7954 18.4677 19.2126 19.1867 19.2126C19.9057 19.2126 20.4885 19.7954 20.4885 20.5144ZM24.4823 19.2166C25.2012 19.2166 25.7841 18.6338 25.7841 17.9148C25.7841 17.1958 25.2012 16.613 24.4823 16.613C23.7633 16.613 23.1805 17.1958 23.1805 17.9148C23.1805 18.6338 23.7633 19.2166 24.4823 19.2166ZM4.60088 21.5947C4.60088 22.1086 4.18431 22.5252 3.67044 22.5252C3.15657 22.5252 2.73999 22.1086 2.73999 21.5947C2.73999 21.0809 3.15657 20.6643 3.67044 20.6643C4.18431 20.6643 4.60088 21.0809 4.60088 21.5947ZM8.59481 25.1247C9.10869 25.1247 9.52526 24.7082 9.52526 24.1943C9.52526 23.6804 9.10869 23.2639 8.59481 23.2639C8.08094 23.2639 7.66437 23.6804 7.66437 24.1943C7.66437 24.7082 8.08094 25.1247 8.59481 25.1247ZM15.006 26.8286C15.006 27.3425 14.5894 27.7591 14.0756 27.7591C13.5617 27.7591 13.1451 27.3425 13.1451 26.8286C13.1451 26.3147 13.5617 25.8982 14.0756 25.8982C14.5894 25.8982 15.006 26.3147 15.006 26.8286ZM19.1868 25.1247C19.7007 25.1247 20.1172 24.7082 20.1172 24.1943C20.1172 23.6804 19.7007 23.2639 19.1868 23.2639C18.6729 23.2639 18.2563 23.6804 18.2563 24.1943C18.2563 24.7082 18.6729 25.1247 19.1868 25.1247ZM25.4128 21.5947C25.4128 22.1086 24.9962 22.5252 24.4823 22.5252C23.9685 22.5252 23.5519 22.1086 23.5519 21.5947C23.5519 21.0809 23.9685 20.6643 24.4823 20.6643C24.9962 20.6643 25.4128 21.0809 25.4128 21.5947ZM8.59483 8.15387C9.62109 8.15387 10.453 7.32192 10.453 6.29567C10.453 5.26941 9.62109 4.43747 8.59483 4.43747C7.56858 4.43747 6.73663 5.26941 6.73663 6.29567C6.73663 7.32192 7.56858 8.15387 8.59483 8.15387ZM10.2531 11.4138C10.2531 12.3297 9.51067 13.0721 8.5948 13.0721C7.67893 13.0721 6.93646 12.3297 6.93646 11.4138C6.93646 10.4979 7.67893 9.75546 8.5948 9.75546C9.51067 9.75546 10.2531 10.4979 10.2531 11.4138ZM3.60969 10.7832C4.53005 10.7832 5.27615 10.0371 5.27615 9.1167C5.27615 8.19635 4.53005 7.45025 3.60969 7.45025C2.68933 7.45025 1.94324 8.19635 1.94324 9.1167C1.94324 10.0371 2.68933 10.7832 3.60969 10.7832ZM15.557 9.1167C15.557 10.0371 14.8109 10.7831 13.8905 10.7831C12.9702 10.7831 12.2241 10.0371 12.2241 9.1167C12.2241 8.19635 12.9702 7.45026 13.8905 7.45026C14.8109 7.45026 15.557 8.19635 15.557 9.1167ZM24.4823 10.7831C25.4026 10.7831 26.1487 10.037 26.1487 9.11668C26.1487 8.19632 25.4026 7.45023 24.4823 7.45023C23.5619 7.45023 22.8158 8.19632 22.8158 9.11668C22.8158 10.037 23.5619 10.7831 24.4823 10.7831ZM21.0449 6.29567C21.0449 7.32192 20.213 8.15387 19.1868 8.15387C18.1605 8.15387 17.3286 7.32192 17.3286 6.29567C17.3286 5.26941 18.1605 4.43747 19.1868 4.43747C20.213 4.43747 21.0449 5.26941 21.0449 6.29567ZM19.1867 13.0722C20.1026 13.0722 20.8451 12.3297 20.8451 11.4138C20.8451 10.4979 20.1026 9.75546 19.1867 9.75546C18.2708 9.75546 17.5284 10.4979 17.5284 11.4138C17.5284 12.3297 18.2708 13.0722 19.1867 13.0722Z" fill="url(#paint0_linear_19_9656)"/>
<defs>
<linearGradient id="paint0_linear_19_9656" x1="14.046" y1="1.16669" x2="14.046" y2="27.7591" gradientUnits="userSpaceOnUse">
<stop offset="0.270921" stop-color="white"/>
<stop offset="1" stop-color="white" stop-opacity="0.59"/>
</linearGradient>
</defs>
</svg>
